<svg width="88" height="96" viewBox="0 0 88 96" fill="none" xmlns="http://www.w3.org/2000/svg">
<path d="M74.7833 54.81C73.2779 55.3642 71.7198 55.7629 70.1333 56C65.6833 66.74 54.6833 74.68 43.1333 74.68C29.4333 74.68 20.1333 63.57 22.3133 49.87C24.4933 36.17 37.4033 25.07 51.1033 25.07C51.7333 25.07 52.3433 25.07 52.9533 25.14C53.7233 23.29 54.5833 21.3 55.5133 19.21C55.0463 18.9601 54.6904 18.5437 54.5163 18.0435C54.3422 17.5433 54.3625 16.9959 54.5733 16.51C55.2733 14.89 55.6433 13.18 56.2333 11.51C56.2333 11.39 56.3233 11.27 56.3733 11.15C54.2345 10.7986 52.0707 10.6214 49.9033 10.62C26.4233 10.62 4.33328 29.62 0.553276 53.15C-3.22672 76.68 12.7633 95.67 36.2533 95.67C59.7433 95.67 81.8233 76.67 85.6033 53.15C85.6633 52.75 85.7033 52.35 85.7633 51.96C81.7833 53.08 77.9933 54.06 74.7833 54.81Z" fill="#2128BD"/>
<path d="M71.5333 51.56C68.5933 64.47 56.2033 74.68 43.0733 74.68C29.3733 74.68 20.0733 63.57 22.2533 49.87C24.4333 36.17 37.3433 25.07 51.0433 25.07H52.0433C53.2205 21.5124 54.5959 18.0237 56.1633 14.62L57.6233 9.61997C56.2933 9.48997 54.9433 9.40997 53.5533 9.40997C31.2133 9.41997 10.1933 27.56 6.61331 49.87C3.03331 72.18 18.2233 90.32 40.6133 90.32C62.3933 90.32 82.9033 73.12 87.2433 51.55L71.5333 51.56Z" fill="#29377E"/>
<path d="M58.4834 49.87C57.9116 53.0034 56.284 55.8465 53.8714 57.9261C51.4588 60.0057 48.4069 61.1964 45.2234 61.3C38.9134 61.3 34.6234 56.18 35.6334 49.87C36.2073 46.7384 37.8358 43.8977 40.2482 41.8201C42.6605 39.7424 45.7114 38.5532 48.8934 38.45C55.2034 38.45 59.4934 43.56 58.4834 49.87Z" fill="#3F3F69"/>
<path d="M60.5733 0L51.3533 48.94C51.0921 50.1051 50.4536 51.1513 49.5368 51.9162C48.62 52.681 47.4763 53.1218 46.2833 53.17C45.7573 53.1891 45.2341 53.0847 44.7557 52.8652C44.2773 52.6457 43.857 52.3171 43.5284 51.9059C43.1998 51.4947 42.9721 51.0123 42.8636 50.4972C42.755 49.9822 42.7686 49.4488 42.9033 48.94L60.5733 0Z" fill="#EB5757"/>
<path d="M81.3033 51.49L46.4833 55.71C45.3632 55.71 44.2888 55.2657 43.4958 54.4746C42.7028 53.6835 42.2559 52.6101 42.2533 51.49C42.2559 50.369 42.7024 49.2946 43.4952 48.5019C44.2879 47.7092 45.3622 47.2627 46.4833 47.26L81.3033 51.49Z" fill="#EB5757"/>
</svg>
