<svg width="78" height="23" viewBox="0 0 78 23" fill="none" xmlns="http://www.w3.org/2000/svg">
<path d="M11.82 22.21C9.84 22.21 8.02 21.75 6.36 20.83C4.72 19.91 3.41 18.63 2.43 16.99C1.47 15.33 0.99 13.47 0.99 11.41C0.99 9.35 1.47 7.5 2.43 5.86C3.41 4.22 4.72 2.94 6.36 2.02C8.02 1.1 9.84 0.64 11.82 0.64C13.8 0.64 15.61 1.1 17.25 2.02C18.91 2.94 20.21 4.22 21.15 5.86C22.11 7.5 22.59 9.35 22.59 11.41C22.59 13.47 22.11 15.33 21.15 16.99C20.19 18.63 18.89 19.91 17.25 20.83C15.61 21.75 13.8 22.21 11.82 22.21ZM11.82 17.53C13.5 17.53 14.84 16.97 15.84 15.85C16.86 14.73 17.37 13.25 17.37 11.41C17.37 9.55 16.86 8.07 15.84 6.97C14.84 5.85 13.5 5.29 11.82 5.29C10.12 5.29 8.76 5.84 7.74 6.94C6.74 8.04 6.24 9.53 6.24 11.41C6.24 13.27 6.74 14.76 7.74 15.88C8.76 16.98 10.12 17.53 11.82 17.53ZM35.644 5.08C37.604 5.08 39.164 5.72 40.324 7C41.504 8.26 42.094 10 42.094 12.22V22H36.994V12.91C36.994 11.79 36.704 10.92 36.124 10.3C35.544 9.68 34.764 9.37 33.784 9.37C32.804 9.37 32.024 9.68 31.444 10.3C30.864 10.92 30.574 11.79 30.574 12.91V22H25.444V5.26H30.574V7.48C31.094 6.74 31.794 6.16 32.674 5.74C33.554 5.3 34.544 5.08 35.644 5.08ZM61.4388 13.36C61.4388 13.84 61.4088 14.34 61.3488 14.86H49.7388C49.8188 15.9 50.1488 16.7 50.7288 17.26C51.3288 17.8 52.0588 18.07 52.9188 18.07C54.1988 18.07 55.0888 17.53 55.5888 16.45H61.0488C60.7688 17.55 60.2588 18.54 59.5188 19.42C58.7988 20.3 57.8888 20.99 56.7888 21.49C55.6888 21.99 54.4588 22.24 53.0988 22.24C51.4588 22.24 49.9988 21.89 48.7188 21.19C47.4388 20.49 46.4388 19.49 45.7188 18.19C44.9988 16.89 44.6388 15.37 44.6388 13.63C44.6388 11.89 44.9888 10.37 45.6888 9.07C46.4088 7.77 47.4088 6.77 48.6888 6.07C49.9688 5.37 51.4388 5.02 53.0988 5.02C54.7188 5.02 56.1588 5.36 57.4188 6.04C58.6788 6.72 59.6588 7.69 60.3588 8.95C61.0788 10.21 61.4388 11.68 61.4388 13.36ZM56.1888 12.01C56.1888 11.13 55.8888 10.43 55.2888 9.91C54.6888 9.39 53.9388 9.13 53.0388 9.13C52.1788 9.13 51.4488 9.38 50.8488 9.88C50.2688 10.38 49.9088 11.09 49.7688 12.01H56.1888ZM70.9552 22.24C69.4952 22.24 68.1952 21.99 67.0552 21.49C65.9152 20.99 65.0152 20.31 64.3552 19.45C63.6952 18.57 63.3252 17.59 63.2452 16.51H68.3152C68.3752 17.09 68.6452 17.56 69.1252 17.92C69.6052 18.28 70.1952 18.46 70.8952 18.46C71.5352 18.46 72.0252 18.34 72.3652 18.1C72.7252 17.84 72.9052 17.51 72.9052 17.11C72.9052 16.63 72.6552 16.28 72.1552 16.06C71.6552 15.82 70.8452 15.56 69.7252 15.28C68.5252 15 67.5252 14.71 66.7252 14.41C65.9252 14.09 65.2352 13.6 64.6552 12.94C64.0752 12.26 63.7852 11.35 63.7852 10.21C63.7852 9.25 64.0452 8.38 64.5652 7.6C65.1052 6.8 65.8852 6.17 66.9052 5.71C67.9452 5.25 69.1752 5.02 70.5952 5.02C72.6952 5.02 74.3452 5.54 75.5452 6.58C76.7652 7.62 77.4652 9 77.6452 10.72H72.9052C72.8252 10.14 72.5652 9.68 72.1252 9.34C71.7052 9 71.1452 8.83 70.4452 8.83C69.8452 8.83 69.3852 8.95 69.0652 9.19C68.7452 9.41 68.5852 9.72 68.5852 10.12C68.5852 10.6 68.8352 10.96 69.3352 11.2C69.8552 11.44 70.6552 11.68 71.7352 11.92C72.9752 12.24 73.9852 12.56 74.7652 12.88C75.5452 13.18 76.2252 13.68 76.8052 14.38C77.4052 15.06 77.7152 15.98 77.7352 17.14C77.7352 18.12 77.4552 19 76.8952 19.78C76.3552 20.54 75.5652 21.14 74.5252 21.58C73.5052 22.02 72.3152 22.24 70.9552 22.24Z" fill="#EB5757"/>
</svg>
