<svg width="141" height="23" viewBox="0 0 141 23" fill="none" xmlns="http://www.w3.org/2000/svg">
<path d="M16.91 7.72C16.91 8.94 16.63 10.06 16.07 11.08C15.51 12.08 14.65 12.89 13.49 13.51C12.33 14.13 10.89 14.44 9.17 14.44H5.99V22H0.86V0.939999H9.17C10.85 0.939999 12.27 1.23 13.43 1.81C14.59 2.39 15.46 3.19 16.04 4.21C16.62 5.23 16.91 6.4 16.91 7.72ZM8.78 10.36C9.76 10.36 10.49 10.13 10.97 9.67C11.45 9.21 11.69 8.56 11.69 7.72C11.69 6.88 11.45 6.23 10.97 5.77C10.49 5.31 9.76 5.08 8.78 5.08H5.99V10.36H8.78ZM24.7107 8.05C25.3107 7.13 26.0607 6.41 26.9607 5.89C27.8607 5.35 28.8607 5.08 29.9607 5.08V10.51H28.5507C27.2707 10.51 26.3107 10.79 25.6707 11.35C25.0307 11.89 24.7107 12.85 24.7107 14.23V22H19.5807V5.26H24.7107V8.05ZM48.1927 13.36C48.1927 13.84 48.1627 14.34 48.1027 14.86H36.4927C36.5727 15.9 36.9027 16.7 37.4827 17.26C38.0827 17.8 38.8127 18.07 39.6727 18.07C40.9527 18.07 41.8427 17.53 42.3427 16.45H47.8027C47.5227 17.55 47.0127 18.54 46.2727 19.42C45.5527 20.3 44.6427 20.99 43.5427 21.49C42.4427 21.99 41.2127 22.24 39.8527 22.24C38.2127 22.24 36.7527 21.89 35.4727 21.19C34.1927 20.49 33.1927 19.49 32.4727 18.19C31.7527 16.89 31.3927 15.37 31.3927 13.63C31.3927 11.89 31.7427 10.37 32.4427 9.07C33.1627 7.77 34.1627 6.77 35.4427 6.07C36.7227 5.37 38.1927 5.02 39.8527 5.02C41.4727 5.02 42.9127 5.36 44.1727 6.04C45.4327 6.72 46.4127 7.69 47.1127 8.95C47.8327 10.21 48.1927 11.68 48.1927 13.36ZM42.9427 12.01C42.9427 11.13 42.6427 10.43 42.0427 9.91C41.4427 9.39 40.6927 9.13 39.7927 9.13C38.9327 9.13 38.2027 9.38 37.6027 9.88C37.0227 10.38 36.6627 11.09 36.5227 12.01H42.9427ZM57.7091 22.24C56.2491 22.24 54.9491 21.99 53.8091 21.49C52.6691 20.99 51.7691 20.31 51.1091 19.45C50.4491 18.57 50.0791 17.59 49.9991 16.51H55.0691C55.1291 17.09 55.3991 17.56 55.8791 17.92C56.3591 18.28 56.9491 18.46 57.6491 18.46C58.2891 18.46 58.7791 18.34 59.1191 18.1C59.4791 17.84 59.6591 17.51 59.6591 17.11C59.6591 16.63 59.4091 16.28 58.9091 16.06C58.4091 15.82 57.5991 15.56 56.4791 15.28C55.2791 15 54.2791 14.71 53.4791 14.41C52.6791 14.09 51.9891 13.6 51.4091 12.94C50.8291 12.26 50.5391 11.35 50.5391 10.21C50.5391 9.25 50.7991 8.38 51.3191 7.6C51.8591 6.8 52.6391 6.17 53.6591 5.71C54.6991 5.25 55.9291 5.02 57.3491 5.02C59.4491 5.02 61.0991 5.54 62.2991 6.58C63.5191 7.62 64.2191 9 64.3991 10.72H59.6591C59.5791 10.14 59.3191 9.68 58.8791 9.34C58.4591 9 57.8991 8.83 57.1991 8.83C56.5991 8.83 56.1391 8.95 55.8191 9.19C55.4991 9.41 55.3391 9.72 55.3391 10.12C55.3391 10.6 55.5891 10.96 56.0891 11.2C56.6091 11.44 57.4091 11.68 58.4891 11.92C59.7291 12.24 60.7391 12.56 61.5191 12.88C62.2991 13.18 62.9791 13.68 63.5591 14.38C64.1591 15.06 64.4691 15.98 64.4891 17.14C64.4891 18.12 64.2091 19 63.6491 19.78C63.1091 20.54 62.3191 21.14 61.2791 21.58C60.2591 22.02 59.0691 22.24 57.7091 22.24ZM83.4076 13.36C83.4076 13.84 83.3776 14.34 83.3176 14.86H71.7076C71.7876 15.9 72.1176 16.7 72.6976 17.26C73.2976 17.8 74.0276 18.07 74.8876 18.07C76.1676 18.07 77.0576 17.53 77.5576 16.45H83.0176C82.7376 17.55 82.2276 18.54 81.4876 19.42C80.7676 20.3 79.8576 20.99 78.7576 21.49C77.6576 21.99 76.4276 22.24 75.0676 22.24C73.4276 22.24 71.9676 21.89 70.6876 21.19C69.4076 20.49 68.4076 19.49 67.6876 18.19C66.9676 16.89 66.6076 15.37 66.6076 13.63C66.6076 11.89 66.9576 10.37 67.6576 9.07C68.3776 7.77 69.3776 6.77 70.6576 6.07C71.9376 5.37 73.4076 5.02 75.0676 5.02C76.6876 5.02 78.1276 5.36 79.3876 6.04C80.6476 6.72 81.6276 7.69 82.3276 8.95C83.0476 10.21 83.4076 11.68 83.4076 13.36ZM78.1576 12.01C78.1576 11.13 77.8576 10.43 77.2576 9.91C76.6576 9.39 75.9076 9.13 75.0076 9.13C74.1476 9.13 73.4176 9.38 72.8176 9.88C72.2376 10.38 71.8776 11.09 71.7376 12.01H78.1576ZM96.3139 5.08C98.2739 5.08 99.8339 5.72 100.994 7C102.174 8.26 102.764 10 102.764 12.22V22H97.6639V12.91C97.6639 11.79 97.3739 10.92 96.7939 10.3C96.2139 9.68 95.4339 9.37 94.4539 9.37C93.4739 9.37 92.6939 9.68 92.1139 10.3C91.5339 10.92 91.2439 11.79 91.2439 12.91V22H86.1139V5.26H91.2439V7.48C91.7639 6.74 92.4639 6.16 93.3439 5.74C94.2239 5.3 95.2139 5.08 96.3139 5.08ZM105.309 13.63C105.309 11.89 105.659 10.37 106.359 9.07C107.079 7.77 108.069 6.77 109.329 6.07C110.609 5.37 112.069 5.02 113.709 5.02C115.809 5.02 117.559 5.57 118.959 6.67C120.379 7.77 121.309 9.32 121.749 11.32H116.289C115.829 10.04 114.939 9.4 113.619 9.4C112.679 9.4 111.929 9.77 111.369 10.51C110.809 11.23 110.529 12.27 110.529 13.63C110.529 14.99 110.809 16.04 111.369 16.78C111.929 17.5 112.679 17.86 113.619 17.86C114.939 17.86 115.829 17.22 116.289 15.94H121.749C121.309 17.9 120.379 19.44 118.959 20.56C117.539 21.68 115.789 22.24 113.709 22.24C112.069 22.24 110.609 21.89 109.329 21.19C108.069 20.49 107.079 19.49 106.359 18.19C105.659 16.89 105.309 15.37 105.309 13.63ZM140.273 13.36C140.273 13.84 140.243 14.34 140.183 14.86H128.573C128.653 15.9 128.983 16.7 129.563 17.26C130.163 17.8 130.893 18.07 131.753 18.07C133.033 18.07 133.923 17.53 134.423 16.45H139.883C139.603 17.55 139.093 18.54 138.353 19.42C137.633 20.3 136.723 20.99 135.623 21.49C134.523 21.99 133.293 22.24 131.933 22.24C130.293 22.24 128.833 21.89 127.553 21.19C126.273 20.49 125.273 19.49 124.553 18.19C123.833 16.89 123.473 15.37 123.473 13.63C123.473 11.89 123.823 10.37 124.523 9.07C125.243 7.77 126.243 6.77 127.523 6.07C128.803 5.37 130.273 5.02 131.933 5.02C133.553 5.02 134.993 5.36 136.253 6.04C137.513 6.72 138.493 7.69 139.193 8.95C139.913 10.21 140.273 11.68 140.273 13.36ZM135.023 12.01C135.023 11.13 134.723 10.43 134.123 9.91C133.523 9.39 132.773 9.13 131.873 9.13C131.013 9.13 130.283 9.38 129.683 9.88C129.103 10.38 128.743 11.09 128.603 12.01H135.023Z" fill="#29377E"/>
</svg>
